<?xml version="1.0" standalone="no"?>
<svg xmlns:xlink="http://www.w3.org/1999/xlink" id="wave" style="transform:rotate(180deg); transition: 0.3s" viewBox="0 0 1440 490" version="1.1" xmlns="http://www.w3.org/2000/svg"><defs><linearGradient id="sw-gradient-0" x1="0" x2="0" y1="1" y2="0"><stop stop-color="rgba(214.445, 204.765, 201.657, 1)" offset="0%"/><stop stop-color="rgba(105.388, 109.864, 125.65, 1)" offset="100%"/></linearGradient></defs><path style="transform:translate(0, 0px); opacity:1" fill="url(#sw-gradient-0)" d="M0,49L60,40.8C120,33,240,16,360,8.2C480,0,600,0,720,16.3C840,33,960,65,1080,106.2C1200,147,1320,196,1440,245C1560,294,1680,343,1800,375.7C1920,408,2040,425,2160,432.8C2280,441,2400,441,2520,383.8C2640,327,2760,212,2880,138.8C3000,65,3120,33,3240,24.5C3360,16,3480,33,3600,106.2C3720,180,3840,310,3960,310.3C4080,310,4200,180,4320,114.3C4440,49,4560,49,4680,89.8C4800,131,4920,212,5040,220.5C5160,229,5280,163,5400,122.5C5520,82,5640,65,5760,81.7C5880,98,6000,147,6120,204.2C6240,261,6360,327,6480,302.2C6600,278,6720,163,6840,138.8C6960,114,7080,180,7200,171.5C7320,163,7440,82,7560,65.3C7680,49,7800,98,7920,122.5C8040,147,8160,147,8280,163.3C8400,180,8520,212,8580,228.7L8640,245L8640,490L8580,490C8520,490,8400,490,8280,490C8160,490,8040,490,7920,490C7800,490,7680,490,7560,490C7440,490,7320,490,7200,490C7080,490,6960,490,6840,490C6720,490,6600,490,6480,490C6360,490,6240,490,6120,490C6000,490,5880,490,5760,490C5640,490,5520,490,5400,490C5280,490,5160,490,5040,490C4920,490,4800,490,4680,490C4560,490,4440,490,4320,490C4200,490,4080,490,3960,490C3840,490,3720,490,3600,490C3480,490,3360,490,3240,490C3120,490,3000,490,2880,490C2760,490,2640,490,2520,490C2400,490,2280,490,2160,490C2040,490,1920,490,1800,490C1680,490,1560,490,1440,490C1320,490,1200,490,1080,490C960,490,840,490,720,490C600,490,480,490,360,490C240,490,120,490,60,490L0,490Z"/></svg>