<?xml version="1.0" standalone="no"?>
<svg xmlns:xlink="http://www.w3.org/1999/xlink" id="wave" style="transform:rotate(180deg); transition: 0.3s" viewBox="0 0 1440 490" version="1.1" xmlns="http://www.w3.org/2000/svg"><defs><linearGradient id="sw-gradient-0" x1="0" x2="0" y1="1" y2="0"><stop stop-color="rgba(140.067, 200.784, 198.727, 1)" offset="0%"/><stop stop-color="rgba(146.141, 136.231, 114.324, 1)" offset="100%"/></linearGradient></defs><path style="transform:translate(0, 0px); opacity:1" fill="url(#sw-gradient-0)" d="M0,0L120,0C240,0,480,0,720,40.8C960,82,1200,163,1440,196C1680,229,1920,212,2160,204.2C2400,196,2640,196,2880,220.5C3120,245,3360,294,3600,277.7C3840,261,4080,180,4320,138.8C4560,98,4800,98,5040,114.3C5280,131,5520,163,5760,220.5C6000,278,6240,359,6480,334.8C6720,310,6960,180,7200,138.8C7440,98,7680,147,7920,138.8C8160,131,8400,65,8640,89.8C8880,114,9120,229,9360,236.8C9600,245,9840,147,10080,89.8C10320,33,10560,16,10800,57.2C11040,98,11280,196,11520,228.7C11760,261,12000,229,12240,236.8C12480,245,12720,294,12960,294C13200,294,13440,245,13680,212.3C13920,180,14160,163,14400,147C14640,131,14880,114,15120,163.3C15360,212,15600,327,15840,367.5C16080,408,16320,376,16560,318.5C16800,261,17040,180,17160,138.8L17280,98L17280,490L17160,490C17040,490,16800,490,16560,490C16320,490,16080,490,15840,490C15600,490,15360,490,15120,490C14880,490,14640,490,14400,490C14160,490,13920,490,13680,490C13440,490,13200,490,12960,490C12720,490,12480,490,12240,490C12000,490,11760,490,11520,490C11280,490,11040,490,10800,490C10560,490,10320,490,10080,490C9840,490,9600,490,9360,490C9120,490,8880,490,8640,490C8400,490,8160,490,7920,490C7680,490,7440,490,7200,490C6960,490,6720,490,6480,490C6240,490,6000,490,5760,490C5520,490,5280,490,5040,490C4800,490,4560,490,4320,490C4080,490,3840,490,3600,490C3360,490,3120,490,2880,490C2640,490,2400,490,2160,490C1920,490,1680,490,1440,490C1200,490,960,490,720,490C480,490,240,490,120,490L0,490Z"/></svg>